<svg xmlns="http://www.w3.org/2000/svg" viewBox="0 0 708 165.4" role="img" aria-label="Battat Co">
  <!-- Blue logo for use on white / light backgrounds -->
  <!-- Layer 1: outer banner silhouette — soft blue tint, visible on white -->
  <polygon fill="#D0E2F9" points="548.17 0 420.56 22.62 422.29 32.42 341.57 26.88 338.74 13.28 235.3 34.79 129.76 23.62 126.89 9.8 0 36.19 26.39 163.08 113.32 145 112.56 152.13 238 165.4 322.47 149.04 322.03 155.45 451.33 164.33 452.41 148.6 525.83 135.58 524.44 145.17 652.71 163.77 671.3 35.51 551.38 18.12 548.17 0" />
  <!-- Layer 2: inner ribbon — primary blue -->
  <polygon fill="#2D6CDF" points="552.59 29.07 547.8 62.07 539.01 12.46 433.64 31.13 435.93 44.05 341.39 37.56 339.15 70.16 329.97 26 235.85 45.57 136.24 35.03 131.01 84.48 118.12 22.53 13.35 44.32 35.14 149.09 126.17 130.16 124.97 141.45 231.4 152.72 236.66 102.95 246.98 152.56 334.75 134.31 334.06 144.32 440.82 151.65 444.78 94.02 452.31 136.51 539.24 121.1 537.23 134.98 643.13 150.34 658.49 44.43 552.59 29.07" />
  <!-- Layer 3: letter paths — white, readable on the blue ribbon -->
  <path fill="#fff" d="M65.54,93.41l4.14,19.91,15.63-3.25c5.44-1.13,7.11-7,6.1-11.84-1-4.59-4.8-9.2-10.57-8ZM75.45,77.1c4.21-.87,6.31-5.24,5.31-10.07-1.06-5.07-4.23-8.09-9-7.1L59.12,62.56,62.7,79.75ZM63,130.57c-4.1.85-7.14-2.08-7.94-6L41.18,58.06c-.72-4,.82-7.79,4.92-8.64l24.16-5C84,41.53,94.69,48.4,97.59,62.3a16.36,16.36,0,0,1-7.27,17.36,19.92,19.92,0,0,1,18.26,15.49c2.79,13.43-4,26.77-19.22,29.93Z" />
  <path fill="#fff" d="M191.47,100.77l-4.85-29.54L175.7,99.1Zm-22.78,13-6.89,14.52c-1.89,3.91-6.83,5.32-10.84,3.44s-5.59-7.48-3.8-11.4l29.19-61.75c2.34-4.84,6.27-7.57,12-7l.68.07c5.74.61,9,4.1,10.29,9.32L215,127.45c.92,4.21-1.9,9.36-6.11,10.36s-8.84-1.42-9.88-5.64l-3.69-15.63Z" />
  <path fill="#fff" d="M291.82,62.11,304,120.65a8.3,8.3,0,0,1-6.43,9.69,8.52,8.52,0,0,1-9.76-6.32L275.64,65.48l-14.64,3c-3.44.72-7.41-2.26-8.22-6.15-.88-4.24,1.4-8.28,5.06-9l45.46-9.45c3.66-.76,7.36,2,8.24,6.27.81,3.89-1.65,8.21-5.08,8.92Z" />
  <path fill="#fff" d="M400.88,69.1l-4.09,59.65a8.3,8.3,0,0,1-8.81,7.6,8.55,8.55,0,0,1-7.69-8.73L384.39,68l-14.92-1c-3.5-.24-6.52-4.18-6.25-8.15.3-4.32,3.59-7.59,7.31-7.33l46.32,3.18c3.73.25,6.54,3.94,6.25,8.26-.28,4-3.81,7.46-7.31,7.22Z" />
  <path fill="#fff" d="M504,79.09,491.19,52l-2.77,29.81ZM485.74,97.84l-2.6,15.86c-.74,4.28-5.08,7-9.46,6.32s-7.44-5.65-6.82-9.91L477.8,42.69c.9-5.3,3.93-9,9.61-10l.67-.11c5.69-1,9.8,1.44,12.47,6.09L534,98.21c2,3.79.77,9.52-3,11.65s-8.89,1.09-11-2.68l-7.89-14Z" />
  <path fill="#fff" d="M609.3,65.12l-8.58,59.17a8.29,8.29,0,0,1-9.35,6.91,8.53,8.53,0,0,1-7-9.28l8.58-59.17L578.15,60.6c-3.48-.5-6.19-4.66-5.62-8.59.62-4.29,4.14-7.3,7.84-6.77l46,6.67c3.7.53,6.22,4.42,5.6,8.71-.57,3.93-4.35,7.15-7.83,6.64Z" />
  <path fill="#fff" d="M675.72,43.09a16.14,16.14,0,1,1,16.14,16.06,16,16,0,0,1-16.14-16.06m29.81,0a13.67,13.67,0,1,0-13.67,13.58,13.7,13.7,0,0,0,13.67-13.58m-6,8.69h-3l-5.26-8.12h-3v8.12h-2.47V34.19h7.66c3.17,0,6.25.87,6.25,4.66,0,3.46-2.42,4.73-5.55,4.81Zm-8.23-10.59c2.18,0,6,.42,6-2.38,0-1.82-2.39-2.14-4.29-2.14h-4.69v4.52Z" />
</svg>
